<svg width="1496" height="522" viewBox="0 0 1496 522" fill="none" xmlns="http://www.w3.org/2000/svg">
<ellipse cx="143.353" cy="217.435" rx="17.4513" ry="111.894" transform="rotate(-9.43918 143.353 217.435)" fill="#3D642D"/>
<ellipse cx="378.092" cy="214.821" rx="17.4513" ry="111.894" transform="rotate(10.6293 378.092 214.821)" fill="#3D642D"/>
<ellipse cx="261" cy="206.85" rx="122.929" ry="111.894" fill="#889C58"/>
<path d="M208.719 179.383C198.96 189.611 190.65 200.95 184.457 212.489L244.561 213.582L208.719 179.383Z" fill="#1E1E1E"/>
<path d="M319.351 183.146C326.216 191.127 332.265 199.704 337.226 208.489L281.793 215.451L319.351 183.146Z" fill="#1E1E1E"/>
<g filter="url(#filter0_d_23_218)">
<rect x="98.5488" y="206.85" width="325.416" height="52.8673" rx="26.4336" fill="#8F8F8F"/>
</g>
<rect x="76.9912" y="206.85" width="368.018" height="220.195" rx="38" fill="#8F8F8F"/>
<ellipse rx="8.82841" ry="41.411" transform="matrix(0.923911 0.382607 -0.538264 0.842777 263.851 310.827)" fill="#3F3F3F"/>
<ellipse rx="4.03055" ry="18.5706" transform="matrix(0.923911 0.382607 -0.538264 0.842777 242.126 344.665)" fill="#3F3F3F"/>
<path d="M567.312 230H547.312L547.438 214.25H567.312C571.854 214.25 575.688 213.208 578.812 211.125C581.938 209 584.312 205.875 585.938 201.75C587.562 197.583 588.375 192.521 588.375 186.562V182.375C588.375 177.875 587.917 173.917 587 170.5C586.083 167.042 584.729 164.146 582.938 161.812C581.146 159.479 578.917 157.729 576.25 156.562C573.625 155.396 570.604 154.812 567.188 154.812H546.938V139H567.188C573.354 139 578.979 140.042 584.062 142.125C589.188 144.208 593.604 147.188 597.312 151.062C601.062 154.938 603.958 159.521 606 164.812C608.042 170.104 609.062 176 609.062 182.5V186.562C609.062 193.021 608.042 198.917 606 204.25C603.958 209.542 601.062 214.125 597.312 218C593.604 221.833 589.208 224.792 584.125 226.875C579.042 228.958 573.438 230 567.312 230ZM558.875 139V230H538.5V139H558.875ZM643.188 139V230H622.875V139H643.188ZM732.938 181.938V218.625C731.438 220.333 729.146 222.167 726.062 224.125C723.021 226.083 719.125 227.771 714.375 229.188C709.625 230.562 703.958 231.25 697.375 231.25C691.417 231.25 686 230.292 681.125 228.375C676.25 226.417 672.062 223.562 668.562 219.812C665.062 216.021 662.354 211.396 660.438 205.938C658.562 200.479 657.625 194.229 657.625 187.188V181.812C657.625 174.771 658.562 168.521 660.438 163.062C662.312 157.604 664.958 153 668.375 149.25C671.792 145.458 675.854 142.583 680.562 140.625C685.271 138.667 690.479 137.688 696.188 137.688C704.312 137.688 710.958 139 716.125 141.625C721.292 144.208 725.208 147.792 727.875 152.375C730.583 156.958 732.25 162.229 732.875 168.188H713.25C712.833 165.146 712 162.521 710.75 160.312C709.542 158.104 707.812 156.417 705.562 155.25C703.312 154.042 700.396 153.438 696.812 153.438C693.938 153.438 691.333 154.042 689 155.25C686.708 156.417 684.771 158.188 683.188 160.562C681.604 162.938 680.396 165.896 679.562 169.438C678.729 172.938 678.312 177.021 678.312 181.688V187.188C678.312 191.854 678.729 195.958 679.562 199.5C680.438 203.042 681.708 206 683.375 208.375C685.042 210.708 687.146 212.479 689.688 213.688C692.271 214.896 695.271 215.5 698.688 215.5C701.354 215.5 703.604 215.292 705.438 214.875C707.271 214.417 708.771 213.854 709.938 213.188C711.104 212.479 711.979 211.833 712.562 211.25V196.125H696.375V181.938H732.938ZM768.562 139V230H748.25V139H768.562ZM825.5 139V230H805.188V139H825.5ZM853.188 139V154.812H778.062V139H853.188ZM893.938 156.312L870.438 230H848.688L882.375 139H896.125L893.938 156.312ZM913.438 230L889.875 156.312L887.438 139H901.375L935.188 230H913.438ZM912.438 196.125V211.875H865V196.125H912.438ZM1002.12 214.25V230H956.188V214.25H1002.12ZM963.125 139V230H942.75V139H963.125ZM1040.88 139V230H1020.56V139H1040.88ZM1068.56 139V154.812H993.438V139H1068.56ZM1078.62 139H1113.56C1120.52 139 1126.54 140.042 1131.62 142.125C1136.75 144.208 1140.69 147.292 1143.44 151.375C1146.19 155.458 1147.56 160.5 1147.56 166.5C1147.56 171.5 1146.75 175.75 1145.12 179.25C1143.5 182.75 1141.21 185.646 1138.25 187.938C1135.33 190.229 1131.92 192.083 1128 193.5L1121.38 197.125H1091.62L1091.5 181.312H1113.62C1116.67 181.312 1119.19 180.771 1121.19 179.688C1123.19 178.604 1124.69 177.083 1125.69 175.125C1126.73 173.125 1127.25 170.792 1127.25 168.125C1127.25 165.375 1126.73 163 1125.69 161C1124.65 159 1123.1 157.479 1121.06 156.438C1119.06 155.354 1116.56 154.812 1113.56 154.812H1099V230H1078.62V139ZM1129 230L1108.56 189.562L1130.06 189.5L1150.81 229.062V230H1129ZM1237.25 182.5V186.562C1237.25 193.479 1236.29 199.688 1234.38 205.188C1232.5 210.688 1229.81 215.375 1226.31 219.25C1222.85 223.125 1218.73 226.104 1213.94 228.188C1209.19 230.229 1203.92 231.25 1198.12 231.25C1192.33 231.25 1187.04 230.229 1182.25 228.188C1177.46 226.104 1173.29 223.125 1169.75 219.25C1166.25 215.375 1163.54 210.688 1161.62 205.188C1159.71 199.688 1158.75 193.479 1158.75 186.562V182.5C1158.75 175.583 1159.71 169.375 1161.62 163.875C1163.54 158.333 1166.23 153.625 1169.69 149.75C1173.19 145.875 1177.33 142.917 1182.12 140.875C1186.92 138.792 1192.21 137.75 1198 137.75C1203.79 137.75 1209.08 138.792 1213.88 140.875C1218.67 142.917 1222.79 145.875 1226.25 149.75C1229.75 153.625 1232.46 158.333 1234.38 163.875C1236.29 169.375 1237.25 175.583 1237.25 182.5ZM1216.69 186.562V182.375C1216.69 177.75 1216.27 173.667 1215.44 170.125C1214.6 166.542 1213.4 163.542 1211.81 161.125C1210.23 158.708 1208.27 156.896 1205.94 155.688C1203.6 154.438 1200.96 153.812 1198 153.812C1194.92 153.812 1192.23 154.438 1189.94 155.688C1187.65 156.896 1185.71 158.708 1184.12 161.125C1182.58 163.542 1181.4 166.542 1180.56 170.125C1179.77 173.667 1179.38 177.75 1179.38 182.375V186.562C1179.38 191.146 1179.77 195.229 1180.56 198.812C1181.4 202.354 1182.6 205.354 1184.19 207.812C1185.77 210.271 1187.71 212.125 1190 213.375C1192.33 214.625 1195.04 215.25 1198.12 215.25C1201.08 215.25 1203.71 214.625 1206 213.375C1208.33 212.125 1210.29 210.271 1211.88 207.812C1213.46 205.354 1214.65 202.354 1215.44 198.812C1216.27 195.229 1216.69 191.146 1216.69 186.562ZM1309.12 214.25V230H1263.19V214.25H1309.12ZM1270.12 139V230H1249.75V139H1270.12ZM1378.5 214.25V230H1332.56V214.25H1378.5ZM1339.5 139V230H1319.12V139H1339.5ZM590.062 357C590.062 354.875 589.729 353 589.062 351.375C588.438 349.708 587.312 348.208 585.688 346.875C584.104 345.542 581.896 344.271 579.062 343.062C576.271 341.854 572.729 340.625 568.438 339.375C563.938 338.042 559.875 336.562 556.25 334.938C552.625 333.271 549.521 331.375 546.938 329.25C544.354 327.125 542.375 324.688 541 321.938C539.625 319.188 538.938 316.042 538.938 312.5C538.938 308.958 539.667 305.688 541.125 302.688C542.583 299.688 544.667 297.083 547.375 294.875C550.125 292.625 553.396 290.875 557.188 289.625C560.979 288.375 565.208 287.75 569.875 287.75C576.708 287.75 582.5 289.062 587.25 291.688C592.042 294.271 595.688 297.667 598.188 301.875C600.688 306.042 601.938 310.5 601.938 315.25H589.938C589.938 311.833 589.208 308.812 587.75 306.188C586.292 303.521 584.083 301.438 581.125 299.938C578.167 298.396 574.417 297.625 569.875 297.625C565.583 297.625 562.042 298.271 559.25 299.562C556.458 300.854 554.375 302.604 553 304.812C551.667 307.021 551 309.542 551 312.375C551 314.292 551.396 316.042 552.188 317.625C553.021 319.167 554.292 320.604 556 321.938C557.75 323.271 559.958 324.5 562.625 325.625C565.333 326.75 568.562 327.833 572.312 328.875C577.479 330.333 581.938 331.958 585.688 333.75C589.438 335.542 592.521 337.562 594.938 339.812C597.396 342.021 599.208 344.542 600.375 347.375C601.583 350.167 602.188 353.333 602.188 356.875C602.188 360.583 601.438 363.938 599.938 366.938C598.438 369.938 596.292 372.5 593.5 374.625C590.708 376.75 587.354 378.396 583.438 379.562C579.562 380.688 575.229 381.25 570.438 381.25C566.229 381.25 562.083 380.667 558 379.5C553.958 378.333 550.271 376.583 546.938 374.25C543.646 371.917 541 369.042 539 365.625C537.042 362.167 536.062 358.167 536.062 353.625H548.062C548.062 356.75 548.667 359.438 549.875 361.688C551.083 363.896 552.729 365.729 554.812 367.188C556.938 368.646 559.333 369.729 562 370.438C564.708 371.104 567.521 371.438 570.438 371.438C574.646 371.438 578.208 370.854 581.125 369.688C584.042 368.521 586.25 366.854 587.75 364.688C589.292 362.521 590.062 359.958 590.062 357ZM644.125 312.375V321.25H607.562V312.375H644.125ZM619.938 295.938H631.5V363.25C631.5 365.542 631.854 367.271 632.562 368.438C633.271 369.604 634.188 370.375 635.312 370.75C636.438 371.125 637.646 371.312 638.938 371.312C639.896 371.312 640.896 371.229 641.938 371.062C643.021 370.854 643.833 370.688 644.375 370.562L644.438 380C643.521 380.292 642.312 380.562 640.812 380.812C639.354 381.104 637.583 381.25 635.5 381.25C632.667 381.25 630.062 380.688 627.688 379.562C625.312 378.438 623.417 376.562 622 373.938C620.625 371.271 619.938 367.688 619.938 363.188V295.938ZM699.062 364.375V312.375H710.688V380H699.625L699.062 364.375ZM701.25 350.125L706.062 350C706.062 354.5 705.583 358.667 704.625 362.5C703.708 366.292 702.208 369.583 700.125 372.375C698.042 375.167 695.312 377.354 691.938 378.938C688.562 380.479 684.458 381.25 679.625 381.25C676.333 381.25 673.312 380.771 670.562 379.812C667.854 378.854 665.521 377.375 663.562 375.375C661.604 373.375 660.083 370.771 659 367.562C657.958 364.354 657.438 360.5 657.438 356V312.375H669V356.125C669 359.167 669.333 361.688 670 363.688C670.708 365.646 671.646 367.208 672.812 368.375C674.021 369.5 675.354 370.292 676.812 370.75C678.312 371.208 679.854 371.438 681.438 371.438C686.354 371.438 690.25 370.5 693.125 368.625C696 366.708 698.062 364.146 699.312 360.938C700.604 357.688 701.25 354.083 701.25 350.125ZM770.938 366.875V284H782.562V380H771.938L770.938 366.875ZM725.438 346.938V345.625C725.438 340.458 726.062 335.771 727.312 331.562C728.604 327.312 730.417 323.667 732.75 320.625C735.125 317.583 737.938 315.25 741.188 313.625C744.479 311.958 748.146 311.125 752.188 311.125C756.438 311.125 760.146 311.875 763.312 313.375C766.521 314.833 769.229 316.979 771.438 319.812C773.688 322.604 775.458 325.979 776.75 329.938C778.042 333.896 778.938 338.375 779.438 343.375V349.125C778.979 354.083 778.083 358.542 776.75 362.5C775.458 366.458 773.688 369.833 771.438 372.625C769.229 375.417 766.521 377.562 763.312 379.062C760.104 380.521 756.354 381.25 752.062 381.25C748.104 381.25 744.479 380.396 741.188 378.688C737.938 376.979 735.125 374.583 732.75 371.5C730.417 368.417 728.604 364.792 727.312 360.625C726.062 356.417 725.438 351.854 725.438 346.938ZM737.062 345.625V346.938C737.062 350.312 737.396 353.479 738.062 356.438C738.771 359.396 739.854 362 741.312 364.25C742.771 366.5 744.625 368.271 746.875 369.562C749.125 370.812 751.812 371.438 754.938 371.438C758.771 371.438 761.917 370.625 764.375 369C766.875 367.375 768.875 365.229 770.375 362.562C771.875 359.896 773.042 357 773.875 353.875V338.812C773.375 336.521 772.646 334.312 771.688 332.188C770.771 330.021 769.562 328.104 768.062 326.438C766.604 324.729 764.792 323.375 762.625 322.375C760.5 321.375 757.979 320.875 755.062 320.875C751.896 320.875 749.167 321.542 746.875 322.875C744.625 324.167 742.771 325.958 741.312 328.25C739.854 330.5 738.771 333.125 738.062 336.125C737.396 339.083 737.062 342.25 737.062 345.625ZM813.125 312.375V380H801.5V312.375H813.125ZM800.625 294.438C800.625 292.562 801.188 290.979 802.312 289.688C803.479 288.396 805.188 287.75 807.438 287.75C809.646 287.75 811.333 288.396 812.5 289.688C813.708 290.979 814.312 292.562 814.312 294.438C814.312 296.229 813.708 297.771 812.5 299.062C811.333 300.312 809.646 300.938 807.438 300.938C805.188 300.938 803.479 300.312 802.312 299.062C801.188 297.771 800.625 296.229 800.625 294.438ZM828.625 346.938V345.5C828.625 340.625 829.333 336.104 830.75 331.938C832.167 327.729 834.208 324.083 836.875 321C839.542 317.875 842.771 315.458 846.562 313.75C850.354 312 854.604 311.125 859.312 311.125C864.062 311.125 868.333 312 872.125 313.75C875.958 315.458 879.208 317.875 881.875 321C884.583 324.083 886.646 327.729 888.062 331.938C889.479 336.104 890.188 340.625 890.188 345.5V346.938C890.188 351.812 889.479 356.333 888.062 360.5C886.646 364.667 884.583 368.312 881.875 371.438C879.208 374.521 875.979 376.938 872.188 378.688C868.438 380.396 864.188 381.25 859.438 381.25C854.688 381.25 850.417 380.396 846.625 378.688C842.833 376.938 839.583 374.521 836.875 371.438C834.208 368.312 832.167 364.667 830.75 360.5C829.333 356.333 828.625 351.812 828.625 346.938ZM840.188 345.5V346.938C840.188 350.312 840.583 353.5 841.375 356.5C842.167 359.458 843.354 362.083 844.938 364.375C846.562 366.667 848.583 368.479 851 369.812C853.417 371.104 856.229 371.75 859.438 371.75C862.604 371.75 865.375 371.104 867.75 369.812C870.167 368.479 872.167 366.667 873.75 364.375C875.333 362.083 876.521 359.458 877.312 356.5C878.146 353.5 878.562 350.312 878.562 346.938V345.5C878.562 342.167 878.146 339.021 877.312 336.062C876.521 333.062 875.312 330.417 873.688 328.125C872.104 325.792 870.104 323.958 867.688 322.625C865.312 321.292 862.521 320.625 859.312 320.625C856.146 320.625 853.354 321.292 850.938 322.625C848.562 323.958 846.562 325.792 844.938 328.125C843.354 330.417 842.167 333.062 841.375 336.062C840.583 339.021 840.188 342.167 840.188 345.5ZM944.062 362.062C944.062 360.396 943.688 358.854 942.938 357.438C942.229 355.979 940.75 354.667 938.5 353.5C936.292 352.292 932.958 351.25 928.5 350.375C924.75 349.583 921.354 348.646 918.312 347.562C915.312 346.479 912.75 345.167 910.625 343.625C908.542 342.083 906.938 340.271 905.812 338.188C904.688 336.104 904.125 333.667 904.125 330.875C904.125 328.208 904.708 325.688 905.875 323.312C907.083 320.938 908.771 318.833 910.938 317C913.146 315.167 915.792 313.729 918.875 312.688C921.958 311.646 925.396 311.125 929.188 311.125C934.604 311.125 939.229 312.083 943.062 314C946.896 315.917 949.833 318.479 951.875 321.688C953.917 324.854 954.938 328.375 954.938 332.25H943.375C943.375 330.375 942.812 328.562 941.688 326.812C940.604 325.021 939 323.542 936.875 322.375C934.792 321.208 932.229 320.625 929.188 320.625C925.979 320.625 923.375 321.125 921.375 322.125C919.417 323.083 917.979 324.312 917.062 325.812C916.188 327.312 915.75 328.896 915.75 330.562C915.75 331.812 915.958 332.938 916.375 333.938C916.833 334.896 917.625 335.792 918.75 336.625C919.875 337.417 921.458 338.167 923.5 338.875C925.542 339.583 928.146 340.292 931.312 341C936.854 342.25 941.417 343.75 945 345.5C948.583 347.25 951.25 349.396 953 351.938C954.75 354.479 955.625 357.562 955.625 361.188C955.625 364.146 955 366.854 953.75 369.312C952.542 371.771 950.771 373.896 948.438 375.688C946.146 377.438 943.396 378.812 940.188 379.812C937.021 380.771 933.458 381.25 929.5 381.25C923.542 381.25 918.5 380.188 914.375 378.062C910.25 375.938 907.125 373.188 905 369.812C902.875 366.438 901.812 362.875 901.812 359.125H913.438C913.604 362.292 914.521 364.812 916.188 366.688C917.854 368.521 919.896 369.833 922.312 370.625C924.729 371.375 927.125 371.75 929.5 371.75C932.667 371.75 935.312 371.333 937.438 370.5C939.604 369.667 941.25 368.521 942.375 367.062C943.5 365.604 944.062 363.938 944.062 362.062Z" fill="#F5F5F5"/>
<defs>
<filter id="filter0_d_23_218" x="3.54883" y="106.85" width="515.416" height="242.867" filterUnits="userSpaceOnUse" color-interpolation-filters="sRGB">
<feFlood flood-opacity="0" result="BackgroundImageFix"/>
<feColorMatrix in="SourceAlpha" type="matrix" values="0 0 0 0 0 0 0 0 0 0 0 0 0 0 0 0 0 0 127 0" result="hardAlpha"/>
<feMorphology radius="32" operator="dilate" in="SourceAlpha" result="effect1_dropShadow_23_218"/>
<feOffset dy="-5"/>
<feGaussianBlur stdDeviation="31.5"/>
<feComposite in2="hardAlpha" operator="out"/>
<feColorMatrix type="matrix" values="0 0 0 0 0.387153 0 0 0 0 0.66573 0 0 0 0 0.929167 0 0 0 0.45 0"/>
<feBlend mode="normal" in2="BackgroundImageFix" result="effect1_dropShadow_23_218"/>
<feBlend mode="normal" in="SourceGraphic" in2="effect1_dropShadow_23_218" result="shape"/>
</filter>
</defs>
</svg>
