<svg width="712" height="712" viewBox="0 0 712 712" fill="none" xmlns="http://www.w3.org/2000/svg">
<ellipse cx="195.532" cy="296.579" rx="23.8033" ry="152.621" transform="rotate(-9.43918 195.532 296.579)" fill="#F5F5F5"/>
<ellipse cx="515.712" cy="293.013" rx="23.8033" ry="152.621" transform="rotate(10.6293 515.712 293.013)" fill="#F5F5F5"/>
<path fill-rule="evenodd" clip-rule="evenodd" d="M523.674 282.14C523.674 359.258 460.835 358.763 379.222 358.121H379.221C371.631 358.061 363.879 358 356 358C348.121 358 340.369 358.061 332.779 358.121H332.778C251.165 358.763 188.327 359.258 188.327 282.14C188.327 197.849 263.397 129.518 356 129.518C448.604 129.518 523.674 197.849 523.674 282.14ZM284.689 244.676C271.378 258.627 260.044 274.092 251.596 289.832L333.577 291.322L284.689 244.676ZM459.971 284.376C453.205 272.393 444.954 260.695 435.59 249.808L384.362 293.872L459.971 284.376Z" fill="#F5F5F5"/>
<path fill-rule="evenodd" clip-rule="evenodd" d="M105.015 320.14C105.015 299.153 122.028 282.14 143.015 282.14H568.985C589.972 282.14 606.985 299.153 606.985 320.14V544.482C606.985 565.469 589.972 582.482 568.985 582.482H143.015C122.028 582.482 105.015 565.469 105.015 544.482V320.14ZM337.468 468.755C346.107 462.537 359.021 447.35 371.015 428.57C387.807 402.28 396.438 378.904 390.293 376.359C384.149 373.815 365.555 393.065 348.764 419.356C337.013 437.755 329.258 454.726 327.768 464.129C326.9 465.377 326.034 466.676 325.178 468.015C317.648 479.805 313.818 490.304 316.623 491.466C319.429 492.628 327.807 484.012 335.337 472.222C336.085 471.051 336.796 469.893 337.468 468.755Z" fill="#F5F5F5"/>
</svg>
